<svg width="707" height="200" viewBox="0 0 707 200" fill="none" xmlns="http://www.w3.org/2000/svg">
<path d="M58.1488 1.79517C65.9865 2.69788 88.0684 26.4073 93.3273 33.4428C110.59 56.6697 122.579 86.796 118.321 116.082C113.538 148.975 86.0474 180.552 60.2506 199.97C57.552 200.515 50.8929 193.385 48.7425 191.463C25.6251 170.801 4.30016 144.923 0.580494 113.025C-3.59977 77.1796 15.325 40.8213 40.3519 16.2543C45.4178 11.2822 51.8175 5.23971 58.1488 1.79517ZM49.8177 139.062L56.0436 145.782L55.9875 109.729C45.6238 92.562 31.4473 77.9071 25.1775 58.4649C24.8388 57.4143 22.9191 50.389 22.5796 50.0051C17.8552 57.9735 8.36682 75.8238 10.8703 84.5991C16.7999 105.382 36.1586 123.155 49.8177 139.062ZM96.0251 49.5876C92.4984 67.2196 85.3356 77.4075 75.4804 91.7208C71.2207 97.942 66.9214 104.135 62.583 110.301C62.4797 119.088 62.8041 127.887 62.6508 136.675C62.5994 139.607 62.8827 144.1 62.4488 146.81C64.3528 144.685 66.2732 142.496 68.2073 140.406C75.0369 132.777 82.3229 124.941 88.6392 117.106C96.884 106.878 107.697 93.0718 108.611 79.7796C108.926 75.1996 99.5627 52.8768 96.0251 49.5876ZM90.2721 42.7683C83.3816 30.2227 73.8508 20.2861 62.7602 11.3376C62.2723 32.4758 63.1716 54.2737 62.7404 75.4741C62.6049 82.1353 62.9361 92.2451 62.3818 98.4717C66.0022 94.5091 70.2619 87.312 73.6448 82.7841C81.6262 70.3747 90.1174 58.276 90.2721 42.7683ZM6.4779 92.0952C2.27505 133.302 27.9972 163.85 56.0635 190.009C55.9437 178.72 55.889 166.745 56.0354 155.462C53.0939 151.652 49.3263 148.024 46.111 144.322C32.7312 128.916 17.1175 114.079 8.2368 95.4474C7.9035 94.7479 6.93645 92.5106 6.4779 92.0952ZM55.401 11.7127C47.6769 16.8326 31.4993 33.9027 28.8705 43.2625C28.3045 45.276 29.0334 49.1551 29.4824 51.3C32.2117 64.3547 38.6956 72.4887 45.3397 82.9996C48.0787 87.0287 53.2219 94.9573 56.3311 98.3738C55.7274 95.1079 56.0039 79.898 56.008 75.7293L55.9971 28.8964C55.9978 25.8919 56.2038 13.9418 55.7993 11.8708L55.401 11.7127ZM62.5392 156.037C62.7349 163.5 62.7219 170.609 62.5789 178.063C62.5481 179.673 62.4167 188.964 62.7096 190.183C66.7708 186.917 69.5494 183.108 73.2643 179.686C96.0949 158.657 114.751 129.408 112.866 97.2288C112.798 96.0702 112.902 92.8782 112.307 92.0979C104.497 111.064 87.3778 128.514 73.7755 143.616C70.8354 146.88 64.8784 152.891 62.5392 156.037Z" fill="#D5A544"/>
<path d="M554.293 117.563C558.639 117.563 561.977 118.008 564.305 118.899C566.633 119.789 568.651 120.754 570.358 121.793C571.289 122.313 572.027 122.721 572.57 123.018C573.191 123.241 573.773 123.352 574.316 123.352C575.092 123.352 575.635 122.944 575.946 122.128C576.334 121.311 576.644 120.086 576.877 118.453H579.555C579.477 119.864 579.361 121.497 579.205 123.352C579.128 125.208 579.05 127.694 578.972 130.812C578.972 133.855 578.972 137.9 578.972 142.947H576.295C576.062 139.162 575.17 135.525 573.618 132.036C572.143 128.548 570.009 125.69 567.215 123.464C564.499 121.163 561.006 120.012 556.738 120.012C552.935 120.012 549.753 121.088 547.192 123.241C544.709 125.393 543.467 128.288 543.467 131.925C543.467 135.042 544.282 137.677 545.912 139.83C547.542 141.908 549.831 143.949 552.78 145.953C555.807 147.883 559.377 150.11 563.49 152.634C567.293 155.009 570.707 157.384 573.734 159.759C576.761 162.06 579.128 164.621 580.835 167.441C582.62 170.262 583.513 173.713 583.513 177.795C583.513 182.62 582.271 186.628 579.787 189.82C577.304 193.011 573.967 195.386 569.776 196.945C565.585 198.504 561.006 199.283 556.04 199.283C551.461 199.283 547.813 198.838 545.097 197.947C542.458 197.056 540.169 196.129 538.229 195.164C536.521 194.125 535.202 193.605 534.271 193.605C533.495 193.605 532.913 194.013 532.525 194.83C532.214 195.646 531.943 196.871 531.71 198.504H529.032C529.187 196.797 529.265 194.793 529.265 192.492C529.343 190.191 529.381 187.222 529.381 183.585C529.459 179.874 529.498 175.198 529.498 169.557H532.175C532.486 174.307 533.339 178.76 534.736 182.917C536.211 186.999 538.423 190.302 541.372 192.826C544.398 195.349 548.395 196.611 553.362 196.611C556.078 196.611 558.523 196.166 560.696 195.275C562.947 194.31 564.732 192.863 566.051 190.933C567.37 188.929 568.03 186.405 568.03 183.362C568.03 180.319 567.293 177.647 565.818 175.346C564.344 173.045 562.287 170.893 559.648 168.889C557.01 166.884 553.905 164.843 550.335 162.765C546.688 160.538 543.273 158.275 540.091 155.974C536.909 153.673 534.348 151.075 532.408 148.18C530.546 145.211 529.614 141.648 529.614 137.492C529.614 132.89 530.778 129.142 533.107 126.247C535.435 123.278 538.462 121.088 542.187 119.678C545.989 118.268 550.025 117.563 554.293 117.563Z" fill="#D5A544"/>
<path d="M466.604 119.713C481.715 119.713 492.891 123.024 500.132 129.646C507.451 136.194 511.111 145.612 511.111 157.898C511.111 165.918 509.301 172.944 505.681 178.978C502.139 184.937 496.984 189.572 490.215 192.883C483.447 196.194 475.222 197.849 465.541 197.849C464.361 197.849 462.747 197.813 460.701 197.739C458.734 197.666 456.648 197.629 454.444 197.629C452.319 197.555 450.352 197.518 448.541 197.518C445.314 197.518 442.166 197.555 439.097 197.629C436.027 197.629 433.509 197.702 431.541 197.849V195.642C434.138 195.495 436.067 195.201 437.326 194.759C438.664 194.318 439.53 193.435 439.923 192.111C440.395 190.786 440.632 188.8 440.632 186.151V131.412C440.632 128.689 440.395 126.703 439.923 125.452C439.53 124.128 438.664 123.245 437.326 122.803C436.067 122.288 434.138 121.994 431.541 121.921V119.713C433.509 119.787 436.027 119.897 439.097 120.044C442.166 120.118 445.236 120.118 448.305 120.044C451.139 119.971 454.326 119.897 457.868 119.824C461.409 119.75 464.322 119.713 466.604 119.713ZM465.541 121.7C461.921 121.7 459.56 122.325 458.458 123.576C457.356 124.827 456.805 127.365 456.805 131.191V186.372C456.805 190.198 457.356 192.736 458.458 193.987C459.639 195.238 462.039 195.863 465.659 195.863C472.979 195.863 478.685 194.428 482.778 191.559C486.949 188.616 489.861 184.349 491.514 178.757C493.245 173.165 494.111 166.36 494.111 158.34C494.111 150.1 493.167 143.294 491.278 137.923C489.468 132.478 486.477 128.432 482.305 125.783C478.134 123.061 472.546 121.7 465.541 121.7Z" fill="#D5A544"/>
<path d="M373.893 117.563C381.816 117.563 388.767 119.154 394.747 122.337C400.727 125.52 405.349 130.109 408.611 136.105C411.95 142.027 413.62 149.244 413.62 157.757C413.62 166.047 411.912 173.301 408.494 179.519C405.154 185.737 400.456 190.586 394.398 194.065C388.417 197.544 381.544 199.283 373.777 199.283C365.855 199.283 358.904 197.692 352.923 194.509C346.943 191.326 342.283 186.736 338.943 180.741C335.681 174.745 334.05 167.528 334.05 159.089C334.05 150.799 335.759 143.545 339.176 137.327C342.594 131.109 347.293 126.26 353.273 122.781C359.253 119.302 366.127 117.563 373.893 117.563ZM373.427 119.561C368.845 119.561 364.845 121.227 361.428 124.558C358.088 127.889 355.486 132.478 353.622 138.326C351.758 144.174 350.826 150.947 350.826 158.645C350.826 166.491 351.875 173.338 353.972 179.186C356.069 184.96 358.904 189.438 362.476 192.621C366.049 195.73 369.971 197.285 374.243 197.285C378.825 197.285 382.786 195.619 386.126 192.288C389.543 188.957 392.184 184.368 394.048 178.52C395.912 172.598 396.844 165.825 396.844 158.201C396.844 150.281 395.796 143.433 393.699 137.66C391.602 131.886 388.767 127.445 385.194 124.336C381.699 121.153 377.777 119.561 373.427 119.561Z" fill="#D5A544"/>
<path d="M276.044 117.563C284.038 117.563 291.052 119.154 297.086 122.337C303.12 125.52 307.783 130.109 311.074 136.105C314.444 142.027 316.129 149.244 316.129 157.757C316.129 166.047 314.405 173.301 310.957 179.519C307.587 185.737 302.846 190.586 296.733 194.065C290.699 197.544 283.764 199.283 275.927 199.283C267.933 199.283 260.92 197.692 254.885 194.509C248.851 191.326 244.149 186.736 240.779 180.741C237.488 174.745 235.842 167.528 235.842 159.089C235.842 150.799 237.566 143.545 241.014 137.327C244.463 131.109 249.204 126.26 255.238 122.781C261.272 119.302 268.208 117.563 276.044 117.563ZM275.574 119.561C270.951 119.561 266.915 121.227 263.467 124.558C260.097 127.889 257.472 132.478 255.591 138.326C253.71 144.174 252.77 150.947 252.77 158.645C252.77 166.491 253.827 173.338 255.943 179.186C258.059 184.96 260.92 189.438 264.525 192.621C268.129 195.73 272.087 197.285 276.397 197.285C281.021 197.285 285.017 195.619 288.387 192.288C291.835 188.957 294.5 184.368 296.381 178.52C298.261 172.598 299.202 165.825 299.202 158.201C299.202 150.281 298.144 143.433 296.028 137.66C293.912 131.886 291.052 127.445 287.447 124.336C283.92 121.153 279.963 119.561 275.574 119.561Z" fill="#D5A544"/>
<path d="M217.921 119.713C217.61 122.877 217.377 125.93 217.222 128.873C217.144 131.816 217.106 134.06 217.106 135.605C217.106 137.298 217.144 138.879 217.222 140.351C217.3 141.822 217.377 143.11 217.455 144.214H214.776C213.921 138.695 212.756 134.355 211.28 131.191C209.805 127.954 207.824 125.673 205.339 124.348C202.853 122.951 199.552 122.252 195.436 122.252H190.426C188.096 122.252 186.31 122.436 185.067 122.803C183.824 123.171 182.97 123.944 182.504 125.121C182.115 126.298 181.921 128.101 181.921 130.529V185.71C181.921 188.505 182.232 190.602 182.853 192C183.475 193.398 184.679 194.318 186.465 194.759C188.251 195.201 190.814 195.458 194.154 195.532V197.849C191.902 197.702 188.989 197.629 185.416 197.629C181.844 197.555 178.154 197.518 174.348 197.518C171.086 197.518 167.941 197.555 164.912 197.629C161.882 197.629 159.242 197.702 156.989 197.849V195.642C159.552 195.495 161.455 195.201 162.698 194.759C164.018 194.318 164.873 193.435 165.261 192.111C165.727 190.786 165.96 188.8 165.96 186.151V131.412C165.96 128.689 165.727 126.703 165.261 125.452C164.873 124.128 164.018 123.245 162.698 122.803C161.455 122.288 159.552 121.994 156.989 121.921V119.713C160.096 119.787 163.358 119.86 166.776 119.934C170.271 119.934 173.688 119.971 177.028 120.044C180.446 120.044 183.591 120.044 186.465 120.044C189.416 120.044 191.785 120.044 193.572 120.044C197.145 120.044 201.183 120.044 205.688 120.044C210.271 119.971 214.348 119.86 217.921 119.713ZM200.329 158.119C200.329 158.119 200.329 158.487 200.329 159.223C200.329 159.959 200.329 160.326 200.329 160.326H178.426C178.426 160.326 178.426 159.959 178.426 159.223C178.426 158.487 178.426 158.119 178.426 158.119H200.329ZM203.009 143.551C202.698 147.745 202.543 150.946 202.543 153.153C202.62 155.36 202.659 157.383 202.659 159.223C202.659 161.062 202.698 163.085 202.776 165.293C202.853 167.5 203.047 170.7 203.358 174.894H200.678C200.368 172.393 199.785 170.038 198.931 167.831C198.077 165.55 196.756 163.748 194.97 162.423C193.261 161.025 190.776 160.326 187.513 160.326V158.119C189.921 158.119 191.902 157.641 193.455 156.684C195.009 155.728 196.212 154.514 197.067 153.043C197.999 151.497 198.698 149.916 199.164 148.297C199.708 146.605 200.096 145.023 200.329 143.551H203.009Z" fill="#D5A544"/>
<path d="M677.363 0C681.734 0 685.091 0.445204 687.433 1.33561C689.775 2.22602 691.805 3.19063 693.523 4.22943C694.46 4.74884 695.201 5.15694 695.748 5.45375C696.372 5.67635 696.958 5.78765 697.504 5.78765C698.285 5.78765 698.831 5.37954 699.144 4.56334C699.534 3.74713 699.846 2.52282 700.081 0.890408H702.774C702.696 2.30022 702.579 3.93263 702.423 5.78765C702.345 7.64267 702.266 10.1284 702.188 13.2448C702.188 16.287 702.188 20.331 702.188 25.3766H699.495C699.261 21.5924 698.363 17.9565 696.802 14.4691C695.318 10.9817 693.171 8.12497 690.361 5.89894C687.629 3.59873 684.115 2.44862 679.822 2.44862C675.996 2.44862 672.795 3.52453 670.219 5.67635C667.721 7.82816 666.472 10.722 666.472 14.3578C666.472 17.4742 667.292 20.1084 668.931 22.2602C670.57 24.3378 672.874 26.3783 675.84 28.3817C678.885 30.311 682.476 32.537 686.614 35.0598C690.439 37.4342 693.874 39.8086 696.919 42.1831C699.963 44.4833 702.345 47.0432 704.062 49.8628C705.858 52.6824 706.755 56.1328 706.755 60.2138C706.755 65.0368 705.506 69.0437 703.008 72.2343C700.51 75.4249 697.153 77.7994 692.937 79.3576C688.722 80.9158 684.115 81.6949 679.119 81.6949C674.513 81.6949 670.844 81.2497 668.111 80.3593C665.457 79.4689 663.154 78.5414 661.202 77.5768C659.485 76.538 658.158 76.0185 657.221 76.0185C656.44 76.0185 655.855 76.4266 655.464 77.2428C655.152 78.0591 654.879 79.2834 654.644 80.9158H651.951C652.107 79.2092 652.185 77.2057 652.185 74.9055C652.263 72.6053 652.302 69.6373 652.302 66.0015C652.38 62.2914 652.419 57.6168 652.419 51.9775H655.113C655.425 56.7264 656.284 61.1784 657.689 65.3337C659.172 69.4147 661.397 72.7166 664.364 75.2394C667.409 77.7623 671.429 79.0237 676.426 79.0237C679.158 79.0237 681.617 78.5785 683.803 77.6881C686.067 76.7234 687.863 75.2765 689.19 73.3473C690.517 71.3439 691.181 68.8211 691.181 65.7789C691.181 62.7366 690.439 60.0654 688.956 57.7652C687.472 55.465 685.404 53.3132 682.749 51.3097C680.095 49.3063 676.972 47.2658 673.381 45.1882C669.712 42.9622 666.277 40.699 663.076 38.3988C659.875 36.0986 657.299 33.5016 655.347 30.6078C653.473 27.6397 652.537 24.0781 652.537 19.9229C652.537 15.3224 653.708 11.5753 656.05 8.68147C658.392 5.71345 661.436 3.52453 665.184 2.11472C669.009 0.704905 673.069 0 677.363 0Z" fill="#D5A544"/>
<path d="M602.494 0C606.866 0 610.223 0.445204 612.565 1.33561C614.907 2.22602 616.937 3.19063 618.654 4.22943C619.591 4.74884 620.333 5.15694 620.879 5.45375C621.504 5.67635 622.089 5.78765 622.636 5.78765C623.417 5.78765 623.963 5.37954 624.275 4.56334C624.666 3.74713 624.978 2.52282 625.212 0.890408H627.906C627.827 2.30022 627.71 3.93263 627.554 5.78765C627.476 7.64267 627.398 10.1284 627.32 13.2448C627.32 16.287 627.32 20.331 627.32 25.3766H624.627C624.392 21.5924 623.495 17.9565 621.933 14.4691C620.45 10.9817 618.303 8.12497 615.493 5.89894C612.76 3.59873 609.247 2.44862 604.953 2.44862C601.128 2.44862 597.927 3.52453 595.351 5.67635C592.853 7.82816 591.603 10.722 591.603 14.3578C591.603 17.4742 592.423 20.1084 594.063 22.2602C595.702 24.3378 598.005 26.3783 600.972 28.3817C604.016 30.311 607.608 32.537 611.745 35.0598C615.571 37.4342 619.006 39.8086 622.05 42.1831C625.095 44.4833 627.476 47.0432 629.194 49.8628C630.989 52.6824 631.887 56.1328 631.887 60.2138C631.887 65.0368 630.638 69.0437 628.14 72.2343C625.642 75.4249 622.285 77.7994 618.069 79.3576C613.853 80.9158 609.247 81.6949 604.251 81.6949C599.645 81.6949 595.975 81.2497 593.243 80.3593C590.589 79.4689 588.286 78.5414 586.334 77.5768C584.616 76.538 583.289 76.0185 582.352 76.0185C581.572 76.0185 580.986 76.4266 580.596 77.2428C580.283 78.0591 580.01 79.2834 579.776 80.9158H577.083C577.239 79.2092 577.317 77.2057 577.317 74.9055C577.395 72.6053 577.434 69.6373 577.434 66.0015C577.512 62.2914 577.551 57.6168 577.551 51.9775H580.244C580.557 56.7264 581.415 61.1784 582.821 65.3337C584.304 69.4147 586.529 72.7166 589.496 75.2394C592.54 77.7623 596.561 79.0237 601.557 79.0237C604.29 79.0237 606.749 78.5785 608.935 77.6881C611.199 76.7234 612.994 75.2765 614.322 73.3473C615.649 71.3439 616.312 68.8211 616.312 65.7789C616.312 62.7366 615.571 60.0654 614.087 57.7652C612.604 55.465 610.535 53.3132 607.881 51.3097C605.226 49.3063 602.104 47.2658 598.513 45.1882C594.843 42.9622 591.408 40.699 588.207 38.3988C585.007 36.0986 582.43 33.5016 580.479 30.6078C578.605 27.6397 577.668 24.0781 577.668 19.9229C577.668 15.3224 578.839 11.5753 581.181 8.68147C583.523 5.71345 586.568 3.52453 590.315 2.11472C594.141 0.704905 598.2 0 602.494 0Z" fill="#D5A544"/>
<path d="M554.482 1.33563C554.17 4.37785 553.936 7.34588 553.779 10.2397C553.701 13.0593 553.662 15.2111 553.662 16.6952C553.662 18.105 553.701 19.4777 553.779 20.8133C553.857 22.0747 553.936 23.1506 554.014 24.041H551.32C550.696 18.9212 549.681 14.9143 548.276 12.0205C546.87 9.0525 544.958 6.97488 542.537 5.78767C540.195 4.52625 537.112 3.89555 533.286 3.89555H526.846C524.504 3.89555 522.708 4.08105 521.459 4.45206C520.21 4.82306 519.351 5.60217 518.883 6.78937C518.492 7.97659 518.297 9.7945 518.297 12.2431V69.2292C518.297 71.6036 518.492 73.4215 518.883 74.6829C519.351 75.8702 520.21 76.6493 521.459 77.0203C522.708 77.3913 524.504 77.5768 526.846 77.5768H533.521C537.502 77.5768 540.82 76.8719 543.474 75.4621C546.207 74.0522 548.393 71.752 550.032 68.5614C551.672 65.2966 552.882 60.8445 553.662 55.2053H556.356C556.122 57.5055 556.004 60.4735 556.004 64.1094C556.004 65.6676 556.043 67.9307 556.121 70.8987C556.278 73.8667 556.512 76.9461 556.824 80.1367C552.843 79.9883 548.354 79.9141 543.357 79.9141C538.361 79.8399 533.911 79.8028 530.007 79.8028C528.212 79.8028 525.831 79.8028 522.864 79.8028C519.976 79.8028 516.814 79.8399 513.379 79.9141C510.022 79.9141 506.587 79.9512 503.074 80.0254C499.639 80.0254 496.36 80.0625 493.237 80.1367V77.9107C495.813 77.7623 497.726 77.4655 498.975 77.0203C500.302 76.5751 501.161 75.6847 501.551 74.349C502.02 73.0134 502.254 71.01 502.254 68.3388V13.1335C502.254 10.3881 502.02 8.38469 501.551 7.12328C501.161 5.78767 500.302 4.89726 498.975 4.45206C497.726 3.93265 495.813 3.63585 493.237 3.56165V1.33563C496.36 1.40983 499.639 1.48403 503.074 1.55823C506.587 1.55823 510.022 1.59533 513.379 1.66953C516.814 1.66953 519.976 1.66953 522.864 1.66953C525.831 1.66953 528.212 1.66953 530.007 1.66953C533.599 1.66953 537.658 1.66953 542.186 1.66953C546.792 1.59533 550.891 1.48403 554.482 1.33563ZM535.628 39.4005C535.628 39.4005 535.628 39.7716 535.628 40.5136C535.628 41.2556 535.628 41.6266 535.628 41.6266H514.784C514.784 41.6266 514.784 41.2556 514.784 40.5136C514.784 39.7716 514.784 39.4005 514.784 39.4005H535.628ZM539.024 24.7088C538.712 28.9383 538.556 32.166 538.556 34.392C538.634 36.618 538.673 38.6585 538.673 40.5136C538.673 42.3686 538.712 44.4091 538.79 46.6351C538.868 48.8611 539.063 52.0889 539.376 56.3183H536.682C536.292 53.7955 535.667 51.4211 534.809 49.195C534.028 46.8948 532.74 45.0769 530.944 43.7413C529.227 42.3315 526.729 41.6266 523.45 41.6266V39.4005C525.87 39.4005 527.822 38.9182 529.305 37.9536C530.866 36.989 532.115 35.7647 533.052 34.2807C533.989 32.7225 534.692 31.1272 535.16 29.4948C535.706 27.7882 536.097 26.1928 536.331 24.7088H539.024Z" fill="#D5A544"/>
<path d="M405.789 1.33563C407.741 1.40983 410.239 1.48403 413.283 1.55823C416.328 1.63243 419.373 1.66953 422.418 1.66953C426.243 1.66953 429.873 1.63243 433.308 1.55823C436.743 1.48403 439.163 1.44693 440.569 1.44693C447.595 1.44693 453.372 2.26314 457.9 3.89555C462.506 5.45376 465.941 7.67978 468.205 10.5736C470.469 13.4674 471.601 16.8807 471.601 20.8133C471.601 23.2619 471.094 25.7847 470.079 28.3818C469.064 30.9046 467.307 33.2419 464.809 35.3937C462.311 37.5455 458.876 39.3263 454.504 40.7362C450.21 42.0718 444.706 42.7396 437.992 42.7396H426.75V40.5136H436.821C441.74 40.5136 445.487 39.6974 448.063 38.0649C450.718 36.3583 452.474 34.1323 453.333 31.3869C454.27 28.5673 454.738 25.4508 454.738 22.0376C454.738 16.1758 453.528 11.6495 451.108 8.45889C448.688 5.19406 444.511 3.56165 438.578 3.56165C435.377 3.56165 433.269 4.19235 432.254 5.45376C431.317 6.71517 430.849 9.27509 430.849 13.1335V68.3388C430.849 71.01 431.083 73.0134 431.552 74.349C432.02 75.6847 432.879 76.5751 434.128 77.0203C435.455 77.4655 437.368 77.7623 439.866 77.9107V80.1367C437.914 79.9883 435.416 79.9141 432.371 79.9141C429.327 79.8399 426.243 79.8028 423.12 79.8028C419.607 79.8028 416.328 79.8399 413.283 79.9141C410.239 79.9141 407.741 79.9883 405.789 80.1367V77.9107C408.365 77.7623 410.278 77.4655 411.527 77.0203C412.854 76.5751 413.713 75.6847 414.103 74.349C414.572 73.0134 414.806 71.01 414.806 68.3388V13.1335C414.806 10.3881 414.572 8.38469 414.103 7.12328C413.713 5.78767 412.854 4.89726 411.527 4.45206C410.278 3.93265 408.365 3.63585 405.789 3.56165V1.33563ZM426.75 40.8475C430.42 40.9959 433.464 41.1814 435.884 41.404C438.383 41.5524 440.49 41.7008 442.208 41.8492C444.004 41.9976 445.604 42.1831 447.009 42.4057C453.489 42.9993 458.251 44.4462 461.296 46.7464C464.419 48.9724 466.487 52.3857 467.502 56.9861L470.196 68.4501C470.898 71.4923 471.64 73.6812 472.421 75.0168C473.279 76.2783 474.49 76.8719 476.051 76.7977C477.144 76.7977 478.081 76.538 478.861 76.0186C479.642 75.425 480.423 74.6458 481.203 73.6812L482.843 75.0168C480.891 77.3171 478.822 79.0237 476.636 80.1367C474.45 81.1755 471.679 81.6949 468.322 81.6949C464.575 81.6949 461.413 80.8787 458.837 79.2463C456.26 77.5397 454.504 74.349 453.567 69.6744L451.342 58.5443C450.718 55.4279 449.976 52.6825 449.117 50.308C448.336 47.9336 447.243 46.0786 445.838 44.743C444.433 43.4074 442.364 42.7396 439.632 42.7396H426.985L426.75 40.8475Z" fill="#D5A544"/>
<path d="M325.088 1.33563C327.04 1.40983 329.538 1.48403 332.583 1.55823C335.627 1.63243 338.672 1.66953 341.717 1.66953C345.542 1.66953 349.172 1.63243 352.607 1.55823C356.042 1.48403 358.463 1.44693 359.868 1.44693C370.329 1.44693 378.097 3.48745 383.171 7.56848C388.324 11.6495 390.9 16.9178 390.9 23.3732C390.9 26.0444 390.393 28.8641 389.378 31.8321C388.363 34.7259 386.606 37.4342 384.108 39.9571C381.61 42.4057 378.175 44.4091 373.803 45.9673C369.509 47.5255 364.005 48.3046 357.292 48.3046H345.581V46.0786H356.121C361.039 46.0786 364.786 45.0769 367.362 43.0735C370.017 41.0701 371.773 38.4359 372.632 35.1711C373.569 31.9063 374.037 28.3818 374.037 24.5975C374.037 17.5485 372.827 12.2802 370.407 8.79279C367.987 5.30536 363.81 3.56165 357.877 3.56165C354.676 3.56165 352.568 4.19235 351.554 5.45376C350.617 6.71517 350.148 9.27509 350.148 13.1335V67.8936C350.148 70.7132 350.461 72.8279 351.085 74.2377C351.71 75.6476 352.92 76.5751 354.715 77.0203C356.511 77.4655 359.087 77.7252 362.444 77.7994V80.1367C360.18 79.9883 357.253 79.9141 353.661 79.9141C350.07 79.8399 346.362 79.8028 342.537 79.8028C339.258 79.8028 336.096 79.8399 333.051 79.9141C330.006 79.9141 327.352 79.9883 325.088 80.1367V77.9107C327.664 77.7623 329.577 77.4655 330.826 77.0203C332.153 76.5751 333.012 75.6847 333.402 74.349C333.871 73.0134 334.105 71.01 334.105 68.3388V13.1335C334.105 10.3881 333.871 8.38469 333.402 7.12328C333.012 5.78767 332.153 4.89726 330.826 4.45206C329.577 3.93265 327.664 3.63585 325.088 3.56165V1.33563Z" fill="#D5A544"/>
<path d="M266.902 1.33563V3.67295C263.233 3.67295 260.93 4.00685 259.993 4.67466C259.056 5.34246 259.134 6.49257 260.227 8.12499L305.781 72.2343C307.264 74.3861 308.474 75.8331 309.411 76.5751C310.426 77.2429 311.753 77.651 313.392 77.7994V80.1367C311.987 80.0625 309.957 79.9883 307.303 79.9141C304.727 79.7657 302.072 79.6915 299.34 79.6915C295.905 79.6915 292.47 79.7657 289.035 79.9141C285.6 79.9883 283.024 80.0625 281.306 80.1367V77.7994C284.897 77.7994 287.239 77.5768 288.332 77.1316C289.425 76.6122 289.425 75.5734 288.332 74.0151L242.545 9.238C240.983 7.08618 239.734 5.63926 238.798 4.89725C237.939 4.15525 236.651 3.74715 234.933 3.67295V1.33563C236.338 1.40983 238.407 1.52113 241.14 1.66953C243.872 1.74373 246.643 1.78083 249.454 1.78083C252.811 1.78083 256.051 1.74373 259.174 1.66953C262.296 1.52113 264.873 1.40983 266.902 1.33563ZM269.713 40.1797C269.713 40.1797 269.791 40.4394 269.947 40.9588C270.103 41.404 270.259 41.8863 270.415 42.4057C270.65 42.8509 270.767 43.0735 270.767 43.0735L258.002 60.1025C255.036 64.0352 253.396 67.3 253.084 69.897C252.772 72.494 253.514 74.4603 255.309 75.796C257.183 77.0574 259.798 77.7623 263.155 77.9107V80.1367C262.062 80.0625 260.696 80.0254 259.056 80.0254C257.495 79.9512 255.856 79.9141 254.138 79.9141C252.499 79.8399 250.898 79.8028 249.337 79.8028C247.775 79.8028 246.526 79.8028 245.59 79.8028C243.404 79.8028 241.413 79.8399 239.617 79.9141C237.822 79.9141 236.299 79.9883 235.05 80.1367V77.9107C237.705 77.2429 240.32 75.8702 242.896 73.7925C245.472 71.7149 248.088 68.9324 250.742 65.445L269.713 40.1797ZM309.06 1.33563V3.56165C306.561 4.15525 304.102 5.45376 301.682 7.45718C299.262 9.46059 296.959 11.8721 294.773 14.6917L275.802 39.6232C275.802 39.6232 275.646 39.1779 275.334 38.2875C275.1 37.3229 274.982 36.8406 274.982 36.8406L287.513 20.2568C290.401 16.4726 292.119 13.3932 292.665 11.0188C293.212 8.57019 292.743 6.75227 291.26 5.56507C289.777 4.37785 287.434 3.71005 284.234 3.56165V1.33563C285.717 1.40983 287.317 1.48403 289.035 1.55823C290.752 1.55823 292.431 1.59533 294.07 1.66953C295.71 1.66953 297.193 1.66953 298.52 1.66953C300.706 1.66953 302.697 1.63243 304.493 1.55823C306.288 1.48403 307.81 1.40983 309.06 1.33563Z" fill="#D5A544"/>
<path d="M218.07 1.33563C217.758 4.37785 217.524 7.34588 217.368 10.2397C217.29 13.0593 217.251 15.2111 217.251 16.6952C217.251 18.105 217.29 19.4777 217.368 20.8133C217.446 22.0747 217.524 23.1506 217.602 24.041H214.908C214.284 18.9212 213.269 14.9143 211.864 12.0205C210.459 9.0525 208.546 6.97488 206.126 5.78767C203.784 4.52625 200.7 3.89555 196.875 3.89555H190.434C188.092 3.89555 186.296 4.08105 185.047 4.45206C183.798 4.82306 182.939 5.60217 182.471 6.78937C182.08 7.97659 181.885 9.7945 181.885 12.2431V69.2292C181.885 71.6036 182.08 73.4215 182.471 74.6829C182.939 75.8702 183.798 76.6493 185.047 77.0203C186.296 77.3913 188.092 77.5768 190.434 77.5768H197.109C201.09 77.5768 204.408 76.8719 207.063 75.4621C209.795 74.0522 211.981 71.752 213.62 68.5614C215.26 65.2966 216.47 60.8445 217.251 55.2053H219.944C219.71 57.5055 219.593 60.4735 219.593 64.1094C219.593 65.6676 219.632 67.9307 219.71 70.8987C219.866 73.8667 220.1 76.9461 220.412 80.1367C216.431 79.9883 211.942 79.9141 206.945 79.9141C201.949 79.8399 197.499 79.8028 193.596 79.8028C191.8 79.8028 189.419 79.8028 186.452 79.8028C183.564 79.8028 180.402 79.8399 176.967 79.9141C173.61 79.9141 170.175 79.9512 166.662 80.0254C163.227 80.0254 159.948 80.0625 156.825 80.1367V77.9107C159.401 77.7623 161.314 77.4655 162.563 77.0203C163.89 76.5751 164.749 75.6847 165.14 74.349C165.608 73.0134 165.842 71.01 165.842 68.3388V13.1335C165.842 10.3881 165.608 8.38469 165.14 7.12328C164.749 5.78767 163.89 4.89726 162.563 4.45206C161.314 3.93265 159.401 3.63585 156.825 3.56165V1.33563C159.948 1.40983 163.227 1.48403 166.662 1.55823C170.175 1.55823 173.61 1.59533 176.967 1.66953C180.402 1.66953 183.564 1.66953 186.452 1.66953C189.419 1.66953 191.8 1.66953 193.596 1.66953C197.187 1.66953 201.246 1.66953 205.774 1.66953C210.38 1.59533 214.479 1.48403 218.07 1.33563ZM199.217 39.4005C199.217 39.4005 199.217 39.7716 199.217 40.5136C199.217 41.2556 199.217 41.6266 199.217 41.6266H178.372C178.372 41.6266 178.372 41.2556 178.372 40.5136C178.372 39.7716 178.372 39.4005 178.372 39.4005H199.217ZM202.613 24.7088C202.3 28.9383 202.144 32.166 202.144 34.392C202.222 36.618 202.261 38.6585 202.261 40.5136C202.261 42.3686 202.3 44.4091 202.378 46.6351C202.456 48.8611 202.652 52.0889 202.964 56.3183H200.271C199.88 53.7955 199.256 51.4211 198.397 49.195C197.616 46.8948 196.328 45.0769 194.532 43.7413C192.815 42.3315 190.317 41.6266 187.038 41.6266V39.4005C189.458 39.4005 191.41 38.9182 192.893 37.9536C194.454 36.989 195.704 35.7647 196.64 34.2807C197.577 32.7225 198.28 31.1272 198.748 29.4948C199.295 27.7882 199.685 26.1928 199.919 24.7088H202.613Z" fill="#D5A544"/>
</svg>
