<svg width="121" height="200" viewBox="0 0 121 200" fill="none" xmlns="http://www.w3.org/2000/svg">
<path d="M58.6755 0C66.5841 0.910889 88.8661 24.835 94.1725 31.9343C111.592 55.3716 123.689 85.7707 119.392 115.322C114.566 148.513 86.8267 180.376 60.7963 199.97C58.0733 200.519 51.3538 193.325 49.184 191.386C25.8572 170.537 4.33911 144.425 0.585752 112.238C-3.63238 76.0672 15.4638 39.3796 40.7174 14.5901C45.8291 9.57297 52.2868 3.47574 58.6755 0ZM50.2689 138.51L56.5512 145.291L56.4946 108.911C46.037 91.5889 31.7321 76.8013 25.4056 57.183C25.0637 56.1229 23.1266 49.034 22.7841 48.6466C18.017 56.6871 8.44261 74.6991 10.9688 83.5539C16.9521 104.525 36.4861 122.459 50.2689 138.51ZM96.8948 48.2253C93.3362 66.017 86.1085 76.2971 76.164 90.7402C71.8658 97.0176 67.5275 103.267 63.1498 109.489C63.0456 118.356 63.3729 127.234 63.2182 136.102C63.1664 139.06 63.4523 143.594 63.0145 146.328C64.9357 144.184 66.8735 141.975 68.8251 139.866C75.7165 132.168 83.0685 124.261 89.442 116.355C97.7615 106.035 108.673 92.1034 109.595 78.6907C109.912 74.0693 100.464 51.5443 96.8948 48.2253ZM91.0897 41.3443C84.1369 28.6851 74.5197 18.6584 63.3287 9.6289C62.8363 30.9585 63.7437 52.9538 63.3087 74.3462C63.1719 81.0678 63.5062 91.2692 62.9468 97.5522C66.6 93.5536 70.8982 86.2914 74.3118 81.7224C82.3655 69.2006 90.9336 56.9924 91.0897 41.3443ZM6.53658 91.1179C2.29566 132.698 28.2508 163.523 56.5712 189.919C56.4504 178.527 56.3952 166.443 56.5429 155.059C53.5748 151.215 49.7731 147.554 46.5287 143.818C33.0276 128.272 17.2725 113.3 8.3114 94.5004C7.97508 93.7946 6.99927 91.5371 6.53658 91.1179ZM55.9028 10.0073C48.1088 15.1737 31.7846 32.3984 29.132 41.8429C28.5609 43.8746 29.2964 47.7889 29.7494 49.9532C32.5035 63.1262 39.0461 71.3339 45.7504 81.9399C48.5141 86.0055 53.7039 94.006 56.8413 97.4534C56.2322 94.1579 56.5112 78.8102 56.5153 74.6038L56.5043 27.3467C56.505 24.315 56.7128 12.2566 56.3047 10.1669L55.9028 10.0073ZM63.1056 155.638C63.3031 163.169 63.29 170.343 63.1457 177.864C63.1146 179.489 62.982 188.864 63.2776 190.094C67.3756 186.799 70.1794 182.955 73.9279 179.502C96.9653 158.283 115.791 128.768 113.888 96.298C113.82 95.1289 113.925 91.9079 113.324 91.1207C105.443 110.258 88.1692 127.867 74.4437 143.106C71.4769 146.399 65.4661 152.464 63.1056 155.638Z" fill="#D5A544"/>
</svg>
